<svg id="Layer_1" data-name="Layer 1" xmlns="http://www.w3.org/2000/svg" viewBox="0 0 295.02 295.5"><defs><style>.cls-1,.cls-2,.cls-3{fill:none;stroke:#fff;}.cls-1{stroke-miterlimit:10;stroke-width:11px;}.cls-2,.cls-3{stroke-linecap:round;stroke-linejoin:round;}.cls-2{stroke-width:10px;}.cls-3{stroke-width:5px;}.cls-4{fill:#fff;}</style></defs><title>GreenYgn</title><polygon class="cls-1" points="206.33 5.99 88.69 5.99 5.5 89.17 5.5 206.82 88.69 290 206.33 290 289.52 206.82 289.52 89.17 206.33 5.99"/><polyline id="G_Group" class="cls-2" points="90.19 5 6.53 88.66 6.53 209.96 88.69 290 116.07 290.25 115.99 216.21 69.31 170.18 58.75 181.2 100.83 223.27"/><polyline class="cls-3" points="191.91 93.33 191.91 146.07 158.56 179.43 157.79 179.43 124.44 146.07 124.44 93.33"/><line class="cls-3" x1="157.79" y1="179.43" x2="157.79" y2="292.67"/><polyline class="cls-3" points="178.51 159 216.76 182.5 216.76 216.75"/><line class="cls-3" x1="136.51" y1="159.5" x2="106.01" y2="167.5"/><path class="cls-4" d="M181,205.5l10,22.92a6.49,6.49,0,0,0,6.9,3.59l37.2-7.52a5.58,5.58,0,0,0,4.35-6L237.05,197a8.73,8.73,0,0,1,3.68-7.63l13-8.18a5.2,5.2,0,0,0,1.7-7L237,142.81a5.76,5.76,0,0,0-7.11-2.29L208.5,150" transform="translate(-2.49 -2)"/><path class="cls-4" d="M225.6,107.34l12.3-14.16a6.6,6.6,0,0,0,.33-7.82L223.08,64.57a7,7,0,0,0-7.63-2.3L203,66.9a4.13,4.13,0,0,1-5.66-3.17l-2.24-11.32a4.58,4.58,0,0,0-5.79-3.57l-18.81,5.22a7.29,7.29,0,0,0-5,6.33l-1.33,37a7.42,7.42,0,0,0,4.5,6.75l17.18,6.42" transform="translate(-2.49 -2)"/><path class="cls-4" d="M149,106.66l3.36-19.9a7.11,7.11,0,0,0-3.66-7.12L125.36,68.24a7.58,7.58,0,0,0-8.05,1.32L90.64,95.84a7.55,7.55,0,0,0-1.42,8l6.65,14a8.83,8.83,0,0,0,7.14,4.6l13.68.21" transform="translate(-2.49 -2)"/><path class="cls-4" d="M114.33,150.33l-11.45-5.25a7.75,7.75,0,0,0-8.08,1.45l-9.6,9.6A8.75,8.75,0,0,0,83,164a22.86,22.86,0,0,0,4.87,7.87l32.26,32.26a12.16,12.16,0,0,0,8.51,3.08l1-.09a7.7,7.7,0,0,0,6.27-5.28l.09-.34a8.82,8.82,0,0,1,6.19-5.81l1.86-.37a6.37,6.37,0,0,0,4.9-6V187a13.91,13.91,0,0,0-3.54-8.54l-7.8-7.8" transform="translate(-2.49 -2)"/></svg>